<?xml version="1.0" encoding="utf-8"?>
<!-- Generator: Adobe Illustrator 22.1.0, SVG Export Plug-In . SVG Version: 6.00 Build 0)  -->
<svg version="1.1" id="Layer_1" xmlns="http://www.w3.org/2000/svg" xmlns:xlink="http://www.w3.org/1999/xlink" x="0px" y="0px"
	 viewBox="0 0 398.4 255.6" style="enable-background:new 0 0 398.4 255.6;" xml:space="preserve">
<style type="text/css">
	.st0{fill:#44B06C;}
</style>
<g>
	<g>
		<g>
			<path class="st0" d="M341.2,126.6c32-3.1,57.2-30.3,57.2-63.3c0-32.8-24.9-59.7-56.7-63.3c-0.5,0-0.8,0-1.3,0s-0.8,0-1.3,0
				s-0.8,0-1.3,0s-1,0-1.5,0s-1,0-1.5,0H18.5C8.2,0,0,8.2,0,18.5v8.2C0,37,8.2,45.2,18.5,45.2h174.3c5.1,0,9.7,2.1,13.1,5.4
				c3.3,3.3,5.4,8.2,5.4,13.3c0,10.3-8.7,18.2-19,18.2H76.4c-10.3,0-18.5,8.2-18.5,18.5v8.2c0,10.3,8.2,18.5,18.5,18.5h116.4
				c10.3,0,18.5,8.2,18.5,18.5l0,0c0,10.3-8.2,18.5-18.5,18.5h-57.7c-10.3,0-18.5,8.2-18.5,18.5v8.2c0,10.3,8.2,18.5,18.5,18.5
				h114.1c16.7,0,30.3-13.6,30.3-30.3v-36.9h17.9c21,0,37.9,16.9,37.9,37.9v56.9c0,10.3,8.2,18.5,18.5,18.5h16.4
				c10.3,0,18.5-8.2,18.5-18.5v-63.3C388.4,148.9,367.9,129.1,341.2,126.6z M335.1,64.5c0,9.7-8.5,17.4-19.2,17.4h-36.7V44.2h35.9
				c11,0,20.3,8.2,20.3,18.5v1.8L335.1,64.5L335.1,64.5z"/>
		</g>
	</g>
</g>
</svg>
